<svg viewBox="0 0 512 512" xmlns="http://www.w3.org/2000/svg"
     role="img" aria-label="Intimacy and Sex Therapy Library">
  <title>Intimacy and Sex Therapy Library</title>
  <defs>
    <linearGradient id="brandGrad" x1="0%" y1="0%" x2="100%" y2="100%">
      <stop offset="0%" stop-color="#8A567E"/>
      <stop offset="55%" stop-color="#E07A5F"/>
      <stop offset="100%" stop-color="#479191"/>
    </linearGradient>
    <radialGradient id="brandGlow" cx="40%" cy="35%" r="70%">
      <stop offset="0%" stop-color="#FFFFFF" stop-opacity="0.22"/>
      <stop offset="55%" stop-color="#FFFFFF" stop-opacity="0"/>
    </radialGradient>
  </defs>

  <circle cx="256" cy="256" r="248" fill="#F8F6F2"/>
  <circle cx="256" cy="256" r="232" fill="url(#brandGrad)"/>
  <circle cx="256" cy="256" r="232" fill="url(#brandGlow)"/>

  <g stroke="#FFFFFF" stroke-linejoin="round" stroke-width="6">
    <path d="M 252 196 L 252 380 L 162 360 Q 132 354 132 322 L 132 200 Q 132 178 162 174 Q 220 168 252 196 Z"
          fill="#F8F6F2"/>
    <path d="M 260 196 L 260 380 L 350 360 Q 380 354 380 322 L 380 200 Q 380 178 350 174 Q 292 168 260 196 Z"
          fill="#F8F6F2"/>
  </g>

  <g stroke="#E07A5F" stroke-width="4" stroke-linecap="round" fill="none" opacity="0.85">
    <line x1="160" y1="226" x2="232" y2="222"/>
    <line x1="160" y1="258" x2="232" y2="254"/>
    <line x1="160" y1="290" x2="232" y2="286"/>
    <line x1="160" y1="322" x2="216" y2="318"/>
  </g>

  <g stroke="#479191" stroke-width="4" stroke-linecap="round" fill="none" opacity="0.85">
    <line x1="280" y1="222" x2="352" y2="226"/>
    <line x1="280" y1="254" x2="352" y2="258"/>
    <line x1="280" y1="286" x2="352" y2="290"/>
    <line x1="296" y1="318" x2="352" y2="322"/>
  </g>

  <path d="M 256 154
           C 244 138 224 138 218 158
           C 212 178 240 200 256 214
           C 272 200 300 178 294 158
           C 288 138 268 138 256 154 Z"
        fill="#E07A5F"
        stroke="#F8F6F2"
        stroke-width="5"
        stroke-linejoin="round"/>
</svg>
